<svg width="731" height="732" viewBox="0 0 731 732" fill="none" xmlns="http://www.w3.org/2000/svg">
<path d="M0 731.17H731V0.169995H0V731.17Z" fill="white"/>
<path d="M366 118C229.1 118 118 229.1 118 366C118 502.9 229.1 614 366 614C502.9 614 614 502.9 614 366C614 229.1 502.9 118 366 118Z" fill="#73CFFE"/>
<path d="M524.6 341.1C519.4 341.1 516.2 339.8 511.7 337.2C440.5 294.7 313.2 284.5 230.8 307.5C227.2 308.5 222.7 310.1 217.9 310.1C204.7 310.1 194.6 299.8 194.6 286.5C194.6 272.9 203 265.2 212 262.6C247.2 252.3 286.6 247.4 329.5 247.4C402.5 247.4 479 262.6 534.9 295.2C542.7 299.7 547.8 305.9 547.8 317.8C547.8 331.4 536.8 341.1 524.6 341.1ZM493.6 417.3C488.4 417.3 484.9 415 481.3 413.1C418.8 376.1 325.6 361.2 242.7 383.7C237.9 385 235.3 386.3 230.8 386.3C220.1 386.3 211.4 377.6 211.4 366.9C211.4 356.2 216.6 349.1 226.9 346.2C254.7 338.4 283.1 332.6 324.7 332.6C389.6 332.6 452.3 348.7 501.7 378.1C509.8 382.9 513 389.1 513 397.8C512.9 408.6 504.5 417.3 493.6 417.3ZM466.7 482.9C462.5 482.9 459.9 481.6 456 479.3C393.6 441.7 321 440.1 249.3 454.8C245.4 455.8 240.3 457.4 237.4 457.4C227.7 457.4 221.6 449.7 221.6 441.6C221.6 431.3 227.7 426.4 235.2 424.8C317.1 406.7 400.8 408.3 472.2 451C478.3 454.9 481.9 458.4 481.9 467.5C481.9 476.6 474.8 482.9 466.7 482.9Z" fill="black"/>
</svg>
